<svg width="19" height="10" viewBox="0 0 19 10" fill="none" xmlns="http://www.w3.org/2000/svg">
<path d="M0.456 1.32V0.323999H2.712V9H1.608V1.32H0.456ZM10.1198 1.272H5.90775V4.008C6.09175 3.752 6.36375 3.544 6.72375 3.384C7.08375 3.216 7.47175 3.132 7.88775 3.132C8.55175 3.132 9.09175 3.272 9.50775 3.552C9.92375 3.824 10.2198 4.18 10.3958 4.62C10.5798 5.052 10.6718 5.512 10.6718 6C10.6718 6.576 10.5638 7.092 10.3478 7.548C10.1318 8.004 9.79975 8.364 9.35175 8.628C8.91175 8.892 8.36375 9.024 7.70775 9.024C6.86775 9.024 6.18775 8.808 5.66775 8.376C5.14775 7.944 4.83175 7.368 4.71975 6.648H5.78775C5.89175 7.104 6.11175 7.46 6.44775 7.716C6.78375 7.972 7.20775 8.1 7.71975 8.1C8.35175 8.1 8.82775 7.912 9.14775 7.536C9.46775 7.152 9.62775 6.648 9.62775 6.024C9.62775 5.4 9.46775 4.92 9.14775 4.584C8.82775 4.24 8.35575 4.068 7.73175 4.068C7.30775 4.068 6.93575 4.172 6.61575 4.38C6.30375 4.58 6.07575 4.856 5.93175 5.208H4.89975V0.312H10.1198V1.272ZM18.5429 5.076H15.9869V7.668H14.9669V5.076H12.4229V4.152H14.9669V1.548H15.9869V4.152H18.5429V5.076Z" fill="black"/>
</svg>
